<svg id="Layer_1" xmlns="http://www.w3.org/2000/svg" viewBox="0 0 884.5 198.8"><style>.st0{fill:#fff}</style><path class="st0" d="M149.7 92.5h9.5c4.6.5 6.9 1.9 6.9 4.3 0 1.5-1.7 2.3-5.1 2.3l-6.7-.4-9.8.1-21.2 26.9c-14.4 17.9-22.3 26.8-23.8 26.8-1.3 0-2.6-1-3.7-3a8.8 8.8 0 0 1-1.6-4.7c0-2.2 11.8-17.5 35.5-46h-8.1c-11.3.1-28.2.7-50.6 1.9l-35.2 30.1L22.2 143c-7.4 6.4-11.8 9.6-13.4 9.6-1.9 0-2.9-1-2.9-3 0-2.5 10-12.1 30.1-28.8L59.9 101c-31.9 1.5-48.3 3.1-49.4 4.8v.1c0 1.3 5 2 14.9 2l14-.2c1.9-.1 2.8.3 2.8 1.3 0 1.9-7.6 2.9-22.7 2.9-13-.2-19.5-1.9-19.5-5.1 0-4.2 3.8-7 11.5-8.5 2.2-.5 7.5-1 16-1.6L68.1 94c16.4-13.6 39.8-31.1 70.3-52.8C177.2 13.7 200.4 0 207.9 0c3.7 0 5.6 2.4 5.6 7.3 0 4.1-4.9 12.2-14.7 24.4l-49.1 60.8zm-14.9 0l48.8-59.3 9.1-11.1c3.9-4.9 6.5-8.7 7.7-11.4l.2-.4c0-.8-.3-1.1-1-1.1-3.3 0-23.9 13.9-61.9 41.7L80.3 93.4l54.5-.9zM187 118.8l-25.7 19.4c-13.9 9.5-24.1 14.3-30.5 14.3-.8 0-1.2-.4-1.2-1.2 0-1.3 1.3-2.1 3.9-2.5 2.9-.4 6.3-1.7 10.1-3.8 4.6-2.4 12.4-7.7 23.4-15.9 8.1-5.8 16.6-12.3 25.5-19.4 10.3-15.5 24.6-32.3 42.7-50.5C255.2 39 268.7 29 275.6 29c3.2 0 4.8 1.7 4.8 5.1 0 8.7-10.3 22.7-30.8 42-13 12.1-27.1 23.8-42.3 35.1-3.5 2.6-7.9 8.3-13.2 16.8-5.5 8.8-8.2 15-8.2 18.6 0 1.7 1.9 2.6 5.7 2.6.9 0 1.4.5 1.4 1.6 0 1.4-1.8 2-5.5 2-5.7 0-8.6-2.9-8.6-8.7-.1-5.8 2.6-14.2 8.1-25.3zm87.9-86.6c-2.7 0-13.4 10.6-32.1 31.8-17.8 20.3-29.2 34.2-34 41.8 45.4-36.9 68-60.9 68-71.9-.1-1.2-.7-1.7-1.9-1.7z"/><path class="st0" d="M240.3 146.1c0 1.9 2 2.8 6.1 2.8.9 0 1.4.6 1.4 1.7 0 1.4-2.3 2-6.9 2-5.2 0-7.9-2.5-7.9-7.5 0-5.8 7.7-18 23.2-36.6l-28.4 23.2c-16.8 13.7-29 20.6-36.6 20.6-.8 0-1.2-.5-1.2-1.4 0-1.3.7-2.1 2.1-2.4 4.4-.8 8.4-2.3 12-4.3 4.5-2.5 14.1-9.5 28.7-21.1l31.9-26.7c1.4-.5 3.3-.7 5.6-.7 2.4 0 3.5 1.4 3.5 4.1 0 2.9-5.6 10.8-16.8 23.5-11.1 13-16.7 20.5-16.7 22.8zm46-72c-3.3 0-5-1.7-5-5.1 0-2.8 1.7-5.4 5.1-7.7 3.1-2.1 6.1-3.1 9.2-3.1 3.6 0 5.4 2 5.4 5.9 0 2.8-1.8 5.3-5.4 7.3-3.2 1.8-6.2 2.7-9.3 2.7z"/><path class="st0" d="M293.6 123.4l-21.8 17.1c-11.2 8-19.8 12-25.7 12-.8 0-1.2-.4-1.2-1.3 0-1.3.8-2.1 2.5-2.5 6.5-1.2 15.2-6.1 26.2-14.5l29-23.1c15.8-13 28-19.4 36.6-19.4 4.5 0 6.8 1.7 6.8 5.2 1.5 0 2.3.7 2.3 2.1 0 1.2-.9 1.8-2.6 1.9-1.4 4.9-4 9.8-7.8 14.7-4.6 5.8-9 8.7-13.2 8.7-2.5 0-3.7-1.1-3.7-3.4 0-3.3 2.7-7.5 8.1-12.7 4.8-4.6 9.1-7.8 12.9-9.4l.2-1.1c0-1-.5-1.5-1.5-1.5-4.5 0-12.8 6.2-24.9 18.6-12.1 12.4-18.1 21.1-18.1 26 0 3.1 1.3 5.3 4 6.5 1.3.6 3.8 1.1 7.5 1.5 2.7.3 4 .9 4 1.8 0 1.4-2.4 2.1-7.3 2.1-10.9 0-16.3-4.9-16.3-14.8-.2-3.6 1.2-8.5 4-14.5zm46.4-19.9c-2 .9-4.9 3.2-8.5 6.8-4 3.9-5.9 6.6-5.9 8.1l.8.8c1.9 0 4.5-2.1 7.8-6.4 2.9-3.6 4.8-6.7 5.8-9.3z"/><path class="st0" d="M350.3 135.6c-3.5.8-10 4-19.6 9.6-8.5 4.9-14.9 7.3-19.3 7.3-.8 0-1.2-.5-1.2-1.4 0-1.3.9-2.1 2.7-2.4 4.2-.7 10.2-3.3 17.9-7.8 8.5-4.8 15.4-7.9 20.7-9.1 3.2-7.7 9.8-15.8 19.8-24.3 10.6-9.1 19.7-13.6 27.2-13.6 5.6 0 8.3 2.4 8.3 7.1 0 6.2-5.9 12.9-17.6 20.2-8.6 5.4-17.4 9.7-26.5 12.7-1 2.2-1.5 4.5-1.5 6.9 0 3.6 1.3 5.9 3.8 7 1.3.5 3.6.8 7.1.9 2.5.1 3.8.7 3.8 1.8 0 1.8-4.3 2.7-12.9 2.7-9.1 0-13.6-3.9-13.6-11.8.1-1.7.4-3.6.9-5.8zm13.7-5.8c6.4-3.1 13.1-7.4 20.2-12.7 9.4-7 14.2-12.6 14.2-16.7 0-1.7-.8-2.5-2.3-2.5-4.5 0-10.7 4.2-18.4 12.5-7 7.6-11.5 14-13.7 19.4zM587 22.8c.3 1.7.4 2.8.4 3.4 0 1.1-3.6 5.4-10.7 12.8l-13 13.3c-22.5 24.4-42.8 47.8-61 70.1-9 11-15.7 19.7-20.2 26.2-3.3 4.7-6 7.1-8 7.1-3.6 0-5.3-1.7-5.3-5.1 0-7.2 30.3-43.6 90.9-109.4 4.3-4.7 10.1-10.2 17.5-16.8-13.7 2.6-29.8 8.6-48.4 17.8-1.7.8-2.9 1.3-3.6 1.3-2.4 0-3.6-1.8-3.6-5.5 0-4 7.8-8.8 23.5-14.4 11-4 21.1-6.9 30.4-9 11.5-2.4 22.3-3.6 32.6-3.6 11.7 0 20.2 2.2 25.6 6.7 6 4.9 9.1 13.1 9.1 24.4 0 10.5-7.1 21-21.3 31.6-16.5 12.2-38.3 18.6-65.4 19.5 1.7 3.9 4.4 13.2 7.9 27.9 3.3 13.3 5.5 20.8 6.8 22.4 1.3 1.6 4 2.4 8.1 2.4.8 0 1.4.3 1.8.8-.1 1.5-1.8 2.8-5.1 4-2.8 1-5.1 1.5-7 1.5-2.4 0-4.9-.8-7.3-2.4-2.4-1.6-4.2-5.1-5.2-10.4l-4.3-20c-1.7-7.6-3.5-14.2-5.4-19.7-.8-2.1-2.1-4.8-4.1-8.1-2.7-2.7-4.1-4.3-4.1-4.9 0-1.8 3.1-2.7 9.3-2.7 2.3 0 4.2.9 5.6 2.7 10.4 0 23.1-3 38-9 14.9-6 26-12.6 33.2-19.8 8.7-8.7 13.1-16.2 13.1-22.3 0-10.1-8.6-15.1-25.9-15.1-6.9-.1-15.1.7-24.9 2.3z"/><path class="st0" d="M624.4 124.7L602.9 141c-11 7.6-19.2 11.5-24.6 11.5-.8 0-1.2-.4-1.2-1.3 0-1.4.7-2.2 2.1-2.5 4.2-.8 7.8-2 10.8-3.6 5.2-2.8 13.7-8.9 25.4-18.2l27.5-22.6c5.3-4.6 8.5-7 9.7-7 1.8 0 3.7 1 5.8 2.9 4-3.1 7.6-4.6 10.7-4.6 4.7 0 7.1 2.5 7.1 7.6 0 7.6-6 17.9-18.1 30.9-12.3 13.2-22.2 19.8-29.8 19.8-7.1 0-10.6-3.7-10.6-11.1-.1-3.8 2.2-9.9 6.7-18.1zm25.1-12.8c-14.2 12.4-21.2 22.5-21.2 30.3 0 3.3 1.6 5 4.8 5 5.2 0 13.3-6.3 24.4-18.9-5.8-1.4-8.7-5.1-8.7-11.3-.2-1.6.1-3.3.7-5.1zm10.2 13c2.6-2.4 5.1-5.8 7.7-9.9 2.8-4.8 4.3-8.6 4.3-11.5 0-2.7-1.1-4-3.4-4-3.4 0-6.8 2.1-10.3 6.4-3.4 4.3-5.2 8.2-5.2 11.7 0 3.9 2.3 6.3 6.9 7.3zM686.2 134.7c-14.4 11.9-25.4 17.8-32.9 17.8-.8 0-1.2-.4-1.2-1.3 0-1.3.7-2.1 2.1-2.5 2.6-.6 6.5-2 11.9-4.2 5-2.7 17.7-12.5 38.1-29.5 19.4-16.1 29.3-24.1 29.8-24.1 1.6 0 3.2.7 4.7 2.1 1.6 1.4 2.3 2.9 2.3 4.5 0 5.1-4 14-11.9 26.7-6.9 11-12.9 19.3-18 24.7 3.1 0 4.6.6 4.6 1.7 0 1.4-1.5 2.1-4.4 2.1-.8 0-1.9-.1-3.4-.4-1.5-.3-2.6-.4-3.4-.4-.6 0-1.4.1-2.5.3-1.1.2-1.9.3-2.5.3-8.9.1-13.3-5.9-13.3-17.8zm13.6 12.4l-2.9-8.3c-1.5-4.1-3-6.1-4.5-6.1s-2.3 1.2-2.3 3.6.7 4.8 2.1 7.3c1.6 2.9 3.5 4.3 5.6 4.3.8 0 1.5-.3 2-.8zm3-3.3c4.9-4 10.2-11 16-20.9 5.4-9.2 9.2-17.3 11.4-24.3l-37.3 30.3c2.6.4 4.7 2.4 6.5 6.1l3.4 8.8z"/><path class="st0" d="M747 134.7c-14.4 11.9-25.4 17.8-32.9 17.8-.8 0-1.2-.4-1.2-1.3 0-1.3.7-2.1 2.1-2.5 2.6-.6 6.5-2 11.9-4.2 5-2.7 17.7-12.5 38.1-29.5 19.4-16.1 29.3-24.1 29.8-24.1 1.6 0 3.2.7 4.7 2.1 1.6 1.4 2.3 2.9 2.3 4.5 0 5.1-4 14-11.9 26.7-6.9 11-12.9 19.3-18 24.7 3.1 0 4.6.6 4.6 1.7 0 1.4-1.5 2.1-4.4 2.1-.8 0-1.9-.1-3.4-.4-1.5-.3-2.6-.4-3.4-.4-.6 0-1.4.1-2.5.3-1.1.2-1.9.3-2.5.3-8.9.1-13.3-5.9-13.3-17.8zm13.5 12.4l-2.9-8.3c-1.5-4.1-3-6.1-4.5-6.1s-2.3 1.2-2.3 3.6.7 4.8 2.1 7.3c1.6 2.9 3.5 4.3 5.6 4.3.9 0 1.5-.3 2-.8zm3-3.3c4.9-4 10.2-11 16-20.9 5.4-9.2 9.2-17.3 11.4-24.3l-37.3 30.3c2.6.4 4.7 2.4 6.5 6.1l3.4 8.8z"/><path class="st0" d="M823.8 146.1c0 1.9 2 2.8 6.1 2.8.9 0 1.4.6 1.4 1.7 0 1.4-2.3 2-6.9 2-5.2 0-7.9-2.5-7.9-7.5 0-5.8 7.7-18 23.2-36.6l-28.4 23.2c-16.8 13.7-29 20.6-36.6 20.6-.8 0-1.2-.5-1.2-1.4 0-1.3.7-2.1 2.1-2.4 4.4-.8 8.4-2.3 12-4.3 4.5-2.5 14.1-9.5 28.7-21.1l31.9-26.7c1.4-.5 3.3-.7 5.6-.7 2.4 0 3.5 1.4 3.5 4.1 0 2.9-5.6 10.8-16.8 23.5-11.1 13-16.7 20.5-16.7 22.8zm46.1-72c-3.3 0-5-1.7-5-5.1 0-2.8 1.7-5.4 5.1-7.7 3.1-2.1 6.1-3.1 9.2-3.1 3.6 0 5.4 2 5.4 5.9 0 2.8-1.8 5.3-5.4 7.3-3.2 1.8-6.3 2.7-9.3 2.7z"/><g><path class="st0" d="M118.4 173.6h2.4v3.2c.8-1.2 1.7-2 2.5-2.6 1.2-.7 2.5-1.1 3.8-1.1.9 0 1.7.2 2.5.5s1.5.8 2 1.4c.5.6.9 1.4 1.3 2.5.8-1.4 1.8-2.5 3-3.3s2.5-1.1 3.8-1.1c1.3 0 2.4.3 3.4 1 1 .6 1.7 1.5 2.2 2.7.5 1.2.7 2.9.7 5.2v10h-2.4v-10c0-2-.1-3.3-.4-4.1-.3-.7-.8-1.3-1.4-1.8s-1.5-.7-2.4-.7a5 5 0 0 0-3.1 1c-.9.7-1.6 1.6-2.1 2.7-.4 1.1-.7 3-.7 5.7v7.2H131v-9.4c0-2.2-.1-3.7-.4-4.5a4.1 4.1 0 0 0-4-2.6c-1.1 0-2.1.3-3.1 1s-1.7 1.6-2.1 2.7c-.5 1.1-.7 2.8-.7 5.1v7.8h-2.4l.1-18.5zM175.8 173.6V192h-2.3v-3.2c-1 1.2-2.1 2.1-3.3 2.7-1.2.6-2.6.9-4.1.9-2.6 0-4.8-.9-6.7-2.8a9.76 9.76 0 0 1-2.8-6.9c0-2.7.9-4.9 2.8-6.8s4.1-2.8 6.7-2.8a8.75 8.75 0 0 1 7.3 3.9v-3.4h2.4zm-9.5 1.8c-1.3 0-2.5.3-3.7 1-1.1.6-2 1.6-2.7 2.7-.7 1.2-1 2.4-1 3.7 0 1.3.3 2.5 1 3.7.7 1.2 1.6 2.1 2.7 2.8 1.1.7 2.3 1 3.6 1 1.3 0 2.5-.3 3.7-1 1.2-.7 2.1-1.5 2.7-2.7s.9-2.4.9-3.8c0-2.1-.7-3.9-2.1-5.3-1.3-1.4-3-2.1-5.1-2.1zM187.7 166.5h2.4V181l8.5-7.4h3.5l-10.1 8.8 10.7 9.6h-3.3l-9.3-8.3v8.3h-2.4v-25.5zM227.1 185.9l2 1c-.7 1.3-1.4 2.3-2.3 3.1-.9.8-1.8 1.4-2.9 1.8-1.1.4-2.3.6-3.6.6-3 0-5.4-1-7.1-3-1.7-2-2.5-4.2-2.5-6.7 0-2.3.7-4.4 2.2-6.3 1.8-2.3 4.3-3.5 7.3-3.5 3.1 0 5.7 1.2 7.5 3.6 1.3 1.7 2 3.8 2 6.3h-16.6c0 2.1.7 3.9 2.1 5.3 1.3 1.4 3 2.1 4.9 2.1.9 0 1.9-.2 2.7-.5.9-.3 1.6-.8 2.3-1.3.7-.4 1.3-1.3 2-2.5zm0-4.9c-.3-1.3-.8-2.3-1.4-3-.6-.8-1.4-1.4-2.4-1.8-1-.5-2-.7-3.1-.7-1.8 0-3.4.6-4.7 1.7-1 .8-1.7 2.1-2.2 3.8h13.8zM240.4 173.6h2.4v8.6c0 2.1.1 3.5.3 4.3.3 1.1 1 2 1.9 2.7 1 .7 2.1 1 3.4 1s2.4-.3 3.4-1c.9-.6 1.6-1.5 1.9-2.5.2-.7.4-2.2.4-4.5v-8.6h2.4v9c0 2.5-.3 4.5-.9 5.7-.6 1.3-1.5 2.3-2.7 3-1.2.7-2.7 1.1-4.5 1.1s-3.3-.4-4.5-1.1-2.1-1.7-2.7-3.1c-.6-1.3-.9-3.3-.9-5.9l.1-8.7zM268.3 173.6h2.4v3.4a8.75 8.75 0 0 1 7.3-3.9c2.6 0 4.9.9 6.7 2.8 1.9 1.9 2.8 4.2 2.8 6.8 0 2.7-.9 5-2.8 6.9a8.91 8.91 0 0 1-6.7 2.8c-1.5 0-2.8-.3-4-.9-1.2-.6-2.3-1.5-3.3-2.7v9.9h-2.4v-25.1zm9.5 1.8c-2.1 0-3.8.7-5.2 2.1a7.24 7.24 0 0 0-2.1 5.3 7 7 0 0 0 3.6 6.5c1.2.7 2.4 1 3.7 1 1.3 0 2.5-.3 3.6-1s2-1.6 2.7-2.8c.7-1.2 1-2.4 1-3.7 0-1.3-.3-2.5-1-3.7a6.4 6.4 0 0 0-2.7-2.7c-1-.7-2.2-1-3.6-1zM333 173.6V192h-2.3v-3.2c-1 1.2-2.1 2.1-3.3 2.7-1.2.6-2.6.9-4.1.9-2.6 0-4.8-.9-6.7-2.8a9.76 9.76 0 0 1-2.8-6.9c0-2.7.9-4.9 2.8-6.8 1.9-1.9 4.1-2.8 6.7-2.8a8.75 8.75 0 0 1 7.3 3.9v-3.4h2.4zm-9.5 1.8c-1.3 0-2.5.3-3.7 1-1.1.6-2 1.6-2.7 2.7-.7 1.2-1 2.4-1 3.7 0 1.3.3 2.5 1 3.7.7 1.2 1.6 2.1 2.7 2.8s2.3 1 3.6 1c1.3 0 2.5-.3 3.7-1 1.2-.7 2.1-1.5 2.7-2.7s.9-2.4.9-3.8c0-2.1-.7-3.9-2.1-5.3-1.3-1.4-3-2.1-5.1-2.1zM344 173.6h2.4v2.7a7.6 7.6 0 0 1 2.3-2.4c.8-.5 1.6-.8 2.5-.8.7 0 1.4.2 2.1.6l-1.2 2c-.5-.2-.9-.3-1.3-.3-.8 0-1.6.3-2.3 1-.7.6-1.3 1.7-1.7 3-.3 1-.4 3.2-.4 6.4v6.2H344v-18.4zM363.9 166.8h2.4v6.8h3.8v2.1h-3.8V192h-2.4v-16.4h-3.2v-2.1h3.2v-6.7zM380.9 166c.5 0 1 .2 1.4.6.4.4.6.8.6 1.4 0 .5-.2 1-.6 1.4-.4.4-.8.6-1.4.6-.5 0-1-.2-1.4-.6-.4-.4-.6-.8-.6-1.4 0-.5.2-1 .6-1.4.4-.4.9-.6 1.4-.6zm-1.2 7.6h2.4V192h-2.4v-18.4zM402.8 175.6l-1.5 1.6c-1.3-1.2-2.5-1.8-3.7-1.8-.8 0-1.4.3-2 .8-.5.5-.8 1.1-.8 1.8 0 .6.2 1.2.7 1.7.5.6 1.4 1.2 2.9 1.9 1.8.9 3 1.8 3.6 2.6.6.9.9 1.8.9 2.9 0 1.5-.5 2.8-1.6 3.8a5.35 5.35 0 0 1-4 1.6c-1.1 0-2.1-.2-3-.7-1-.5-1.8-1.1-2.4-1.9l1.5-1.7c1.2 1.4 2.5 2 3.9 2 1 0 1.8-.3 2.4-.9.7-.6 1-1.3 1-2.1 0-.7-.2-1.3-.7-1.8-.4-.5-1.4-1.2-3-2-1.7-.9-2.8-1.7-3.4-2.5s-.9-1.8-.9-2.9c0-1.4.5-2.6 1.4-3.5 1-.9 2.2-1.4 3.6-1.4 1.7 0 3.4.9 5.1 2.5zM415.6 166.8h2.4v6.8h3.8v2.1H418V192h-2.4v-16.4h-3.2v-2.1h3.2v-6.7zM467.2 182.8l1.7 1.8c-1.1 1-2.1 1.8-3.1 2.5.7.6 1.6 1.5 2.7 2.6.9.9 1.6 1.6 2.2 2.4h-3.5l-3.3-3.4c-2.1 1.7-3.8 2.8-5.1 3.3-1.3.5-2.7.8-4.1.8-1.9 0-3.5-.6-4.6-1.7a5.3 5.3 0 0 1-1.7-4.1c0-1.2.4-2.5 1.2-3.7.8-1.2 2.4-2.8 4.8-4.7-1.4-1.6-2.2-2.9-2.6-3.6-.4-.8-.6-1.5-.6-2.2 0-1.2.5-2.3 1.4-3.1 1.1-.9 2.5-1.4 4.1-1.4 1 0 2 .2 2.8.6.9.4 1.5 1 2 1.7.4.7.7 1.5.7 2.2 0 .8-.3 1.7-.9 2.7-.6.9-1.7 2.1-3.5 3.6l3.8 4 2.5 2.5c1.3-1.2 2.3-2.1 3.1-2.8zm-11.2-2.5c-2.1 1.6-3.5 2.9-4.2 3.8-.7.9-1 1.8-1 2.6 0 .9.4 1.8 1.2 2.5.8.7 1.8 1.1 3 1.1.9 0 1.8-.2 2.6-.5 1.3-.6 2.9-1.6 4.6-2.9l-3.9-4.1c-.7-.7-1.5-1.5-2.3-2.5zm.3-3.3c1.2-.9 2.1-1.9 2.7-2.8.4-.6.6-1.2.6-1.7 0-.6-.3-1.1-.8-1.5-.6-.4-1.3-.6-2.2-.6-.9 0-1.6.2-2.2.6-.6.4-.8.9-.8 1.5 0 .4.1.9.3 1.3.6 1 1.4 2.1 2.4 3.2zM501.3 166.5h2.4v10.4c1-1.3 2-2.2 3.2-2.8 1.2-.6 2.4-.9 3.7-.9 1.4 0 2.6.3 3.7 1s1.9 1.6 2.4 2.8c.5 1.2.8 3 .8 5.6v9.5H515v-8.8c0-2.1-.1-3.5-.3-4.3a5.2 5.2 0 0 0-1.6-2.8c-.8-.6-1.8-.9-3-.9-1.4 0-2.7.5-3.9 1.4-1.1.9-1.9 2.1-2.2 3.5-.2.9-.3 2.6-.3 5v6.8h-2.4v-25.5zM549.6 173.6V192h-2.3v-3.2c-1 1.2-2.1 2.1-3.3 2.7-1.2.6-2.6.9-4.1.9-2.6 0-4.8-.9-6.7-2.8a9.76 9.76 0 0 1-2.8-6.9c0-2.7.9-4.9 2.8-6.8s4.1-2.8 6.7-2.8a8.75 8.75 0 0 1 7.3 3.9v-3.4h2.4zm-9.5 1.8c-1.3 0-2.5.3-3.7 1-1.1.6-2 1.6-2.7 2.7-.7 1.2-1 2.4-1 3.7 0 1.3.3 2.5 1 3.7.7 1.2 1.6 2.1 2.7 2.8s2.3 1 3.6 1c1.3 0 2.5-.3 3.7-1 1.2-.7 2.1-1.5 2.7-2.7s.9-2.4.9-3.8c0-2.1-.7-3.9-2.1-5.3-1.3-1.4-3-2.1-5.1-2.1zM564.5 166c.5 0 1 .2 1.4.6.4.4.6.8.6 1.4 0 .5-.2 1-.6 1.4-.4.4-.8.6-1.4.6-.5 0-1-.2-1.4-.6-.4-.4-.6-.8-.6-1.4 0-.5.2-1 .6-1.4.4-.4.9-.6 1.4-.6zm-1.2 7.6h2.4V192h-2.4v-18.4zM578.5 173.6h2.4v2.7a7.6 7.6 0 0 1 2.3-2.4c.8-.5 1.6-.8 2.5-.8.7 0 1.4.2 2.1.6l-1.2 2c-.5-.2-.9-.3-1.3-.3-.8 0-1.6.3-2.3 1-.7.6-1.3 1.7-1.7 3-.3 1-.4 3.2-.4 6.4v6.2h-2.4v-18.4zM626.2 175.6l-1.5 1.6c-1.3-1.2-2.5-1.8-3.7-1.8-.8 0-1.4.3-2 .8-.5.5-.8 1.1-.8 1.8 0 .6.2 1.2.7 1.7.5.6 1.4 1.2 2.9 1.9 1.8.9 3 1.8 3.6 2.6.6.9.9 1.8.9 2.9 0 1.5-.5 2.8-1.6 3.8a5.35 5.35 0 0 1-4 1.6c-1.1 0-2.1-.2-3-.7-1-.5-1.8-1.1-2.4-1.9l1.5-1.7c1.2 1.4 2.5 2 3.9 2 1 0 1.8-.3 2.4-.9.7-.6 1-1.3 1-2.1 0-.7-.2-1.3-.7-1.8-.4-.5-1.4-1.2-3-2-1.7-.9-2.8-1.7-3.4-2.5-.6-.8-.9-1.8-.9-2.9 0-1.4.5-2.6 1.4-3.5 1-.9 2.2-1.4 3.6-1.4 1.6 0 3.3.9 5.1 2.5zM641.2 166.8h2.4v6.8h3.8v2.1h-3.8V192h-2.4v-16.4H638v-2.1h3.2v-6.7zM657.6 173.6h2.5l6.3 14.2 6.2-14.2h2.5l-11 25.2h-2.5l3.5-8.1-7.5-17.1zM686.6 166.5h2.4V192h-2.4v-25.5zM703.5 166c.5 0 1 .2 1.4.6.4.4.6.8.6 1.4 0 .5-.2 1-.6 1.4-.4.4-.8.6-1.4.6-.5 0-1-.2-1.4-.6-.4-.4-.6-.8-.6-1.4 0-.5.2-1 .6-1.4.4-.4.8-.6 1.4-.6zm-1.2 7.6h2.4V192h-2.4v-18.4zM727.6 175.6l-1.5 1.6c-1.3-1.2-2.5-1.8-3.7-1.8-.8 0-1.4.3-2 .8-.5.5-.8 1.1-.8 1.8 0 .6.2 1.2.7 1.7.5.6 1.4 1.2 2.9 1.9 1.8.9 3 1.8 3.6 2.6.6.9.9 1.8.9 2.9 0 1.5-.5 2.8-1.6 3.8a5.35 5.35 0 0 1-4 1.6c-1.1 0-2.1-.2-3-.7-1-.5-1.8-1.1-2.4-1.9l1.5-1.7c1.2 1.4 2.5 2 3.9 2 1 0 1.8-.3 2.4-.9.7-.6 1-1.3 1-2.1 0-.7-.2-1.3-.7-1.8-.4-.5-1.4-1.2-3-2-1.7-.9-2.8-1.7-3.4-2.5s-.9-1.8-.9-2.9c0-1.4.5-2.6 1.4-3.5 1-.9 2.2-1.4 3.6-1.4 1.7 0 3.4.9 5.1 2.5zM742.6 166.8h2.4v6.8h3.8v2.1H745V192h-2.4v-16.4h-3.2v-2.1h3.2v-6.7z"/></g></svg>