<svg xmlns="http://www.w3.org/2000/svg" width="884.54" height="198.78"><path d="M149.73 92.49h9.54c4.63.48 6.95 1.9 6.95 4.27 0 1.52-1.7 2.29-5.08 2.29l-6.75-.42-9.76.1-21.22 26.93c-14.36 17.88-22.3 26.82-23.83 26.82-1.35 0-2.6-1-3.73-2.98a9.1 9.1 0 0 1-1.6-4.73c0-2.16 11.83-17.5 35.47-46.04h-8.13c-11.33.07-28.18.7-50.56 1.89l-35.2 30.05-13.64 12.2c-7.36 6.41-11.84 9.6-13.44 9.6-1.94 0-2.92-1-2.92-3.01 0-2.5 10.04-12.11 30.1-28.8l23.86-19.84c-31.87 1.53-48.33 3.12-49.37 4.79v.1c0 1.33 4.96 1.98 14.9 1.98l13.95-.2c1.87-.07 2.8.34 2.8 1.25 0 1.94-7.56 2.91-22.7 2.91-12.9 0-19.37-1.63-19.37-4.9 0-4.16 3.82-7 11.46-8.53 2.15-.49 7.5-1.01 16.04-1.57l40.62-2.7c16.38-13.56 39.82-31.14 70.3-52.76C177.22 13.73 200.38 0 207.88 0c3.75 0 5.63 2.44 5.63 7.3 0 4.1-4.9 12.23-14.67 24.38l-49.11 60.8zm-14.9 0l48.8-59.34 9.05-11.05c3.89-4.94 6.45-8.73 7.7-11.37l.16-.42c0-.76-.34-1.14-1.04-1.14-3.27 0-23.92 13.9-61.95 41.71L80.3 93.42l54.53-.93zM186.95 118.84l-25.72 19.37c-13.89 9.51-24.06 14.27-30.52 14.27-.84 0-1.25-.4-1.25-1.22 0-1.28 1.28-2.13 3.85-2.53 2.92-.42 6.29-1.67 10.1-3.76 4.59-2.42 12.4-7.74 23.44-15.94a756.5 756.5 0 0 0 25.52-19.4c10.34-15.49 24.58-32.3 42.7-50.45 20.13-20.15 33.64-30.23 40.51-30.23 3.2 0 4.8 1.7 4.8 5.1 0 8.76-10.27 22.75-30.8 41.98a492.11 492.11 0 0 1-42.35 35.1c-3.53 2.65-7.94 8.25-13.2 16.81-5.49 8.78-8.23 14.97-8.23 18.6 0 1.73 1.91 2.6 5.73 2.6.9 0 1.36.54 1.36 1.62 0 1.35-1.82 2.03-5.46 2.03-5.73 0-8.6-2.92-8.6-8.75 0-5.7 2.7-14.1 8.12-25.2zm87.9-86.66c-2.7 0-13.42 10.6-32.14 31.8-17.82 20.29-29.16 34.23-34.02 41.8 45.36-36.9 68.04-60.88 68.04-71.93 0-1.1-.63-1.67-1.88-1.67z"/><path d="M240.27 146.13c0 1.87 2.04 2.8 6.12 2.8.92 0 1.38.58 1.38 1.72 0 1.35-2.3 2.03-6.92 2.03-5.25 0-7.87-2.5-7.87-7.5 0-5.83 7.74-18.01 23.22-36.55l-28.43 23.22c-16.8 13.75-28.99 20.63-36.55 20.63-.84 0-1.25-.47-1.25-1.4 0-1.28.7-2.07 2.08-2.35a39.64 39.64 0 0 0 11.98-4.27c4.51-2.49 14.1-9.52 28.74-21.1l31.87-26.7c1.4-.5 3.27-.74 5.63-.74s3.54 1.36 3.54 4.06c0 2.9-5.6 10.76-16.77 23.54-11.18 12.79-16.77 20.32-16.77 22.6zm46.04-72.08c-3.34 0-5-1.7-5-5.1 0-2.85 1.7-5.42 5.1-7.7 3.05-2.1 6.11-3.13 9.17-3.13 3.6 0 5.41 1.98 5.41 5.93 0 2.85-1.8 5.28-5.41 7.3a18.42 18.42 0 0 1-9.27 2.7z"/><path d="M293.6 123.42l-21.77 17.08c-11.25 7.98-19.82 11.98-25.73 11.98-.83 0-1.25-.43-1.25-1.3 0-1.28.84-2.1 2.5-2.45 6.46-1.25 15.2-6.07 26.25-14.45l28.95-23.08c15.83-12.96 28.02-19.44 36.56-19.44 4.51 0 6.77 1.74 6.77 5.2 1.53 0 2.29.7 2.29 2.09 0 1.18-.87 1.8-2.6 1.87-1.4 4.93-4 9.83-7.81 14.69-4.59 5.83-9 8.75-13.23 8.75-2.5 0-3.75-1.15-3.75-3.44 0-3.26 2.7-7.5 8.12-12.7 4.8-4.66 9.1-7.78 12.92-9.38l.2-1.15c0-.97-.48-1.45-1.46-1.45-4.52 0-12.82 6.2-24.9 18.6-12.07 12.4-18.1 21.07-18.1 25.99 0 3.12 1.33 5.3 4 6.55 1.34.62 3.84 1.1 7.5 1.45 2.68.29 4.01.9 4.01 1.82 0 1.43-2.44 2.14-7.32 2.14-10.88 0-16.32-4.93-16.32-14.79 0-3.75 1.39-8.61 4.17-14.58zm46.44-19.9c-2 .9-4.86 3.18-8.53 6.83-3.96 3.87-5.94 6.56-5.94 8.07l.83.83c1.88 0 4.48-2.14 7.81-6.41 2.85-3.66 4.8-6.76 5.84-9.32z"/><path d="M350.25 135.6c-3.47.84-10 4.03-19.58 9.59-8.47 4.86-14.89 7.29-19.26 7.29-.84 0-1.25-.47-1.25-1.4 0-1.28.9-2.07 2.7-2.35 4.24-.7 10.21-3.28 17.92-7.77 8.47-4.83 15.38-7.86 20.72-9.1 3.2-7.71 9.8-15.8 19.8-24.27 10.62-9.1 19.68-13.65 27.18-13.65 5.55 0 8.33 2.36 8.33 7.09 0 6.18-5.87 12.91-17.6 20.2a124.8 124.8 0 0 1-26.46 12.7 17 17 0 0 0-1.46 6.94c0 3.58 1.26 5.93 3.78 7.03 1.26.48 3.64.8 7.13.93 2.52.07 3.78.68 3.78 1.81 0 1.78-4.29 2.67-12.86 2.67-9.07 0-13.6-3.92-13.6-11.77 0-1.8.25-3.78.74-5.94zm13.75-5.83a125.62 125.62 0 0 0 20.2-12.7c9.45-7.02 14.17-12.57 14.17-16.67 0-1.67-.76-2.5-2.3-2.5-4.5 0-10.65 4.17-18.42 12.5-6.95 7.57-11.5 14.02-13.65 19.37zM586.99 22.81c.27 1.67.41 2.81.41 3.44 0 1.1-3.57 5.38-10.72 12.8L563.66 52.4a1565.03 1565.03 0 0 0-61 70.1c-8.96 10.96-15.7 19.71-20.2 26.24-3.28 4.72-5.96 7.08-8.05 7.08-3.55 0-5.32-1.7-5.32-5.1 0-7.15 30.28-43.6 90.85-109.36a254.32 254.32 0 0 1 17.5-16.77c-13.69 2.64-29.8 8.58-48.36 17.8-1.67.84-2.88 1.26-3.65 1.26-2.43 0-3.64-1.84-3.64-5.52 0-4.03 7.84-8.82 23.53-14.37a240.45 240.45 0 0 1 30.41-8.96 157.37 157.37 0 0 1 32.6-3.64c11.67 0 20.2 2.22 25.62 6.66 6.05 4.93 9.07 13.06 9.07 24.37 0 10.49-7.12 21-21.35 31.56-16.46 12.15-38.26 18.64-65.41 19.48 1.74 3.88 4.38 13.19 7.92 27.9 3.26 13.34 5.53 20.8 6.82 22.4 1.28 1.6 3.97 2.4 8.07 2.4.83 0 1.42.27 1.77.83-.07 1.46-1.77 2.78-5.1 3.96-2.78.97-5.1 1.45-6.98 1.45-2.43 0-4.86-.8-7.3-2.4-2.42-1.59-4.16-5.06-5.2-10.4l-4.27-20a196.97 196.97 0 0 0-5.41-19.69 54.7 54.7 0 0 0-4.07-8.12c-2.7-2.7-4.06-4.34-4.06-4.9 0-1.8 3.09-2.7 9.27-2.7 2.29 0 4.17.9 5.62 2.7 10.4 0 23.08-3 38.02-9 14.95-6.01 26.03-12.62 33.24-19.85 8.74-8.74 13.1-16.17 13.1-22.28 0-10.07-8.62-15.1-25.88-15.1-6.79 0-15.07.8-24.83 2.4z"/><path d="M624.38 124.67l-21.46 16.35c-10.97 7.64-19.16 11.46-24.58 11.46-.83 0-1.25-.43-1.25-1.3 0-1.35.7-2.17 2.08-2.45a34.87 34.87 0 0 0 10.83-3.64c5.21-2.84 13.68-8.9 25.42-18.19l27.5-22.55c5.27-4.65 8.5-6.97 9.68-6.97 1.75 0 3.68.98 5.78 2.92 4.01-3.06 7.58-4.59 10.7-4.59 4.7 0 7.06 2.54 7.06 7.6 0 7.58-6.05 17.89-18.13 30.94-12.29 13.2-22.22 19.79-29.78 19.79-7.08 0-10.63-3.71-10.63-11.15 0-3.88 2.26-9.96 6.77-18.22zm25.1-12.81c-14.17 12.4-21.25 22.5-21.25 30.3 0 3.33 1.6 5 4.8 5 5.2 0 13.32-6.3 24.36-18.93-5.83-1.39-8.75-5.14-8.75-11.26 0-1.6.28-3.3.83-5.11zm10.2 13.02c2.57-2.44 5.14-5.75 7.7-9.93 2.85-4.82 4.28-8.65 4.28-11.5 0-2.66-1.15-3.98-3.44-3.98-3.4 0-6.82 2.14-10.26 6.43-3.43 4.29-5.15 8.18-5.15 11.66 0 3.9 2.29 6.35 6.87 7.32zM686.24 134.67c-14.44 11.87-25.41 17.8-32.91 17.8-.84 0-1.25-.42-1.25-1.28 0-1.29.7-2.1 2.08-2.46 2.57-.63 6.53-2.01 11.87-4.16 5-2.7 17.7-12.55 38.12-29.53 19.38-16.08 29.3-24.12 29.79-24.12 1.6 0 3.18.7 4.74 2.08 1.56 1.39 2.34 2.88 2.34 4.47 0 5.06-3.95 13.97-11.87 26.72-6.87 11.02-12.88 19.27-18.02 24.74 3.06 0 4.58.58 4.58 1.72 0 1.42-1.47 2.14-4.41 2.14-.77 0-1.91-.14-3.42-.42a20.6 20.6 0 0 0-3.41-.42c-.56 0-1.4.1-2.5.32-1.12.2-1.95.3-2.5.3-8.82 0-13.23-5.96-13.23-17.9zm13.54 12.39l-2.92-8.29c-1.52-4.05-3.02-6.08-4.48-6.08-1.52 0-2.29 1.19-2.29 3.56 0 2.38.7 4.83 2.09 7.34 1.6 2.87 3.47 4.3 5.62 4.3.83 0 1.5-.27 1.98-.83zm3.02-3.24c4.86-4.03 10.2-10.99 16.04-20.87 5.41-9.19 9.2-17.3 11.35-24.32l-37.29 30.3c2.57.43 4.73 2.45 6.46 6.09l3.44 8.8z"/><path d="M746.96 134.67c-14.44 11.87-25.42 17.8-32.91 17.8-.84 0-1.25-.42-1.25-1.28 0-1.29.69-2.1 2.08-2.46 2.57-.63 6.53-2.01 11.87-4.16 5-2.7 17.7-12.55 38.12-29.53 19.37-16.08 29.3-24.12 29.79-24.12 1.6 0 3.18.7 4.74 2.08 1.56 1.39 2.34 2.88 2.34 4.47 0 5.06-3.96 13.97-11.87 26.72-6.88 11.02-12.88 19.27-18.02 24.74 3.05 0 4.58.58 4.58 1.72 0 1.42-1.47 2.14-4.41 2.14-.77 0-1.91-.14-3.42-.42a20.6 20.6 0 0 0-3.42-.42c-.55 0-1.39.1-2.5.32-1.1.2-1.94.3-2.5.3-8.81 0-13.22-5.96-13.22-17.9zm13.54 12.39l-2.92-8.29c-1.53-4.05-3.02-6.08-4.48-6.08-1.53 0-2.29 1.19-2.29 3.56 0 2.38.7 4.83 2.09 7.34 1.6 2.87 3.47 4.3 5.62 4.3.83 0 1.49-.27 1.98-.83zm3.02-3.24c4.86-4.03 10.2-10.99 16.04-20.87 5.41-9.19 9.2-17.3 11.35-24.32l-37.29 30.3c2.57.43 4.73 2.45 6.46 6.09l3.44 8.8z"/><path d="M823.82 146.13c0 1.87 2.04 2.8 6.13 2.8.91 0 1.37.58 1.37 1.72 0 1.35-2.3 2.03-6.92 2.03-5.25 0-7.87-2.5-7.87-7.5 0-5.83 7.74-18.01 23.23-36.55l-28.43 23.22c-16.8 13.75-29 20.63-36.56 20.63-.84 0-1.25-.47-1.25-1.4 0-1.28.7-2.07 2.08-2.35a39.64 39.64 0 0 0 11.98-4.27c4.51-2.49 14.1-9.52 28.74-21.1l31.87-26.7c1.39-.5 3.27-.74 5.63-.74s3.54 1.36 3.54 4.06c0 2.9-5.6 10.76-16.77 23.54-11.18 12.79-16.77 20.32-16.77 22.6zm46.04-72.08c-3.34 0-5-1.7-5-5.1 0-2.85 1.7-5.42 5.1-7.7 3.05-2.1 6.11-3.13 9.17-3.13 3.6 0 5.41 1.98 5.41 5.93 0 2.85-1.8 5.28-5.41 7.3a18.42 18.42 0 0 1-9.27 2.7z"/><g><path d="M118.38 173.6h2.38v3.19a9.19 9.19 0 0 1 2.54-2.57 7.21 7.21 0 0 1 3.78-1.09 6.24 6.24 0 0 1 4.51 1.92c.5.59.95 1.42 1.32 2.5a8.76 8.76 0 0 1 2.96-3.3 7 7 0 0 1 3.82-1.12 5.78 5.78 0 0 1 5.54 3.66c.48 1.15.72 2.88.72 5.19v10.06h-2.43v-10.06c0-1.98-.14-3.34-.42-4.08a3.68 3.68 0 0 0-1.44-1.79 4.31 4.31 0 0 0-2.44-.68c-1.15 0-2.2.34-3.15 1.02a5.85 5.85 0 0 0-2.08 2.71c-.45 1.13-.66 3.02-.66 5.66v7.22h-2.38v-9.44c0-2.22-.14-3.73-.41-4.53a3.8 3.8 0 0 0-1.45-1.92 4.18 4.18 0 0 0-2.46-.72 5.3 5.3 0 0 0-3.07 1 5.83 5.83 0 0 0-2.12 2.66c-.46 1.12-.68 2.83-.68 5.14v7.8h-2.38V173.6zM175.83 173.6v18.44h-2.34v-3.17c-1 1.2-2.1 2.12-3.35 2.73a9.03 9.03 0 0 1-4.05.91 9 9 0 0 1-6.69-2.84 9.52 9.52 0 0 1-2.77-6.9c0-2.66.93-4.93 2.8-6.81a9.12 9.12 0 0 1 6.72-2.83 8.7 8.7 0 0 1 4.11.96 9.36 9.36 0 0 1 3.23 2.9v-3.39h2.34zm-9.48 1.82a7.18 7.18 0 0 0-6.32 3.7 7.49 7.49 0 0 0 0 7.45 7.24 7.24 0 0 0 13.61-3.66c0-2.13-.7-3.91-2.1-5.34a6.98 6.98 0 0 0-5.2-2.15zM187.67 166.5h2.38v14.54l8.54-7.43h3.48l-10.13 8.79 10.72 9.64h-3.33l-9.28-8.3v8.3h-2.38v-25.55zM227.15 185.92l2 1.05a10.84 10.84 0 0 1-2.27 3.12c-.87.8-1.83 1.4-2.9 1.8-1.08.42-2.3.62-3.65.62-3 0-5.36-.98-7.05-2.95a9.96 9.96 0 0 1-2.55-6.69c0-2.33.72-4.42 2.16-6.25a8.8 8.8 0 0 1 7.3-3.49 9.1 9.1 0 0 1 7.53 3.58 10 10 0 0 1 2.04 6.3h-16.59c.05 2.14.73 3.9 2.06 5.27a6.55 6.55 0 0 0 4.9 2.05 7.94 7.94 0 0 0 5-1.79 11.1 11.1 0 0 0 2.02-2.62zm0-4.96a7.86 7.86 0 0 0-1.39-3.03 7.32 7.32 0 0 0-5.54-2.52c-1.8 0-3.36.58-4.66 1.74a7.87 7.87 0 0 0-2.15 3.81h13.74zM240.4 173.6h2.37v8.61c0 2.1.11 3.55.34 4.34a4.83 4.83 0 0 0 1.94 2.67c.95.66 2.1.99 3.42.99s2.44-.32 3.37-.96a4.9 4.9 0 0 0 1.9-2.51c.24-.71.36-2.23.36-4.53v-8.6h2.42v9.04c0 2.54-.3 4.46-.89 5.75a6.76 6.76 0 0 1-2.67 3.02 8.46 8.46 0 0 1-4.48 1.1c-1.8 0-3.3-.37-4.5-1.1a6.72 6.72 0 0 1-2.7-3.05c-.59-1.3-.88-3.26-.88-5.88v-8.89zM268.35 173.6h2.37v3.4a8.6 8.6 0 0 1 7.31-3.86 9.1 9.1 0 0 1 6.72 2.82 9.34 9.34 0 0 1 2.8 6.8c0 2.72-.93 5.02-2.77 6.92a9 9 0 0 1-6.68 2.83c-1.47 0-2.81-.3-4.04-.91a10.2 10.2 0 0 1-3.34-2.73v9.91h-2.37V173.6zm9.49 1.82c-2.05 0-3.78.72-5.18 2.15a7.35 7.35 0 0 0-2.1 5.35c0 1.4.3 2.65.93 3.77a7.4 7.4 0 0 0 6.38 3.64 7.24 7.24 0 0 0 6.27-3.76 7.5 7.5 0 0 0-2.65-10.18 7.15 7.15 0 0 0-3.65-.97zM333 173.6v18.44h-2.34v-3.17c-1 1.2-2.1 2.12-3.35 2.73a9.03 9.03 0 0 1-4.05.91 9 9 0 0 1-6.69-2.84 9.52 9.52 0 0 1-2.77-6.9c0-2.66.93-4.93 2.8-6.81a9.12 9.12 0 0 1 6.72-2.83 8.7 8.7 0 0 1 4.11.96 9.36 9.36 0 0 1 3.23 2.9v-3.39H333zm-9.48 1.82a7.17 7.17 0 0 0-6.32 3.7 7.49 7.49 0 0 0 0 7.45 7.24 7.24 0 0 0 13.61-3.66c0-2.13-.7-3.91-2.1-5.34a6.98 6.98 0 0 0-5.2-2.15zM343.96 173.6h2.42v2.7a8.57 8.57 0 0 1 2.29-2.38 4.5 4.5 0 0 1 2.5-.79c.66 0 1.36.21 2.1.63l-1.23 2c-.5-.22-.91-.33-1.25-.33-.8 0-1.55.33-2.29.98a6.18 6.18 0 0 0-1.68 3.02c-.29 1.05-.44 3.18-.44 6.37v6.24h-2.42V173.6zM363.88 166.76h2.38v6.85h3.76v2.05h-3.76v16.38h-2.38v-16.38h-3.24v-2.05h3.24v-6.85zM380.92 166.01c.54 0 1 .2 1.38.58.38.38.58.85.58 1.4 0 .52-.2.98-.58 1.36-.38.39-.84.58-1.38.58-.53 0-.98-.19-1.37-.58a1.88 1.88 0 0 1-.57-1.37c0-.54.2-1 .57-1.39.39-.38.84-.58 1.37-.58zm-1.18 7.6h2.38v18.43h-2.38V173.6zM402.83 175.62l-1.52 1.58c-1.27-1.23-2.51-1.85-3.72-1.85-.77 0-1.43.26-1.98.76-.55.51-.82 1.1-.82 1.78 0 .6.22 1.17.67 1.72.46.55 1.4 1.2 2.86 1.94 1.76.92 2.96 1.8 3.6 2.64.62.86.93 1.83.93 2.9a5.43 5.43 0 0 1-5.58 5.42 6.99 6.99 0 0 1-5.45-2.6l1.5-1.7c1.2 1.37 2.49 2.05 3.84 2.05.96 0 1.77-.3 2.43-.91a2.83 2.83 0 0 0 .34-3.97c-.44-.52-1.43-1.17-2.98-1.96-1.67-.86-2.8-1.7-3.4-2.54-.6-.84-.9-1.8-.9-2.87 0-1.4.48-2.56 1.44-3.49a4.99 4.99 0 0 1 3.62-1.38c1.7 0 3.4.82 5.12 2.48zM415.62 166.76H418v6.85h3.76v2.05H418v16.38h-2.38v-16.38h-3.24v-2.05h3.24v-6.85zM467.21 182.82l1.69 1.79a38.28 38.28 0 0 1-3.09 2.49c.68.62 1.56 1.48 2.66 2.57.85.85 1.6 1.65 2.21 2.37h-3.47l-3.3-3.4c-2.08 1.66-3.77 2.76-5.07 3.26-1.3.51-2.67.77-4.12.77a6.45 6.45 0 0 1-4.62-1.65 5.46 5.46 0 0 1-1.75-4.13 7 7 0 0 1 1.18-3.74c.78-1.25 2.39-2.83 4.8-4.74a22.85 22.85 0 0 1-2.63-3.65 5.06 5.06 0 0 1-.58-2.24c0-1.24.48-2.27 1.44-3.08a6.12 6.12 0 0 1 4.13-1.42c1.04 0 1.99.2 2.85.62.85.42 1.51.98 1.96 1.7.45.7.68 1.45.68 2.24 0 .83-.3 1.72-.88 2.66-.59.94-1.75 2.15-3.48 3.62l3.78 3.96 2.47 2.51a40.26 40.26 0 0 0 3.14-2.5zm-11.24-2.53c-2.11 1.6-3.5 2.87-4.16 3.8a4.66 4.66 0 0 0-.98 2.63c0 .95.4 1.78 1.2 2.52.8.72 1.79 1.09 2.96 1.09a6.6 6.6 0 0 0 2.6-.54 20.92 20.92 0 0 0 4.58-2.94l-3.93-4.05c-.67-.71-1.43-1.55-2.27-2.5zm.3-3.3a12.5 12.5 0 0 0 2.74-2.76 3.2 3.2 0 0 0 .65-1.7c0-.58-.28-1.08-.85-1.5a3.64 3.64 0 0 0-2.23-.63c-.88 0-1.6.22-2.16.65-.55.43-.83.93-.83 1.52 0 .45.12.88.34 1.27a19.8 19.8 0 0 0 2.35 3.16zM501.32 166.5h2.37v10.41a10.1 10.1 0 0 1 3.17-2.84 7.72 7.72 0 0 1 3.74-.94c1.38 0 2.6.35 3.67 1.05a6.29 6.29 0 0 1 2.36 2.82c.51 1.19.76 3.03.76 5.55v9.49h-2.36v-8.8c0-2.12-.09-3.53-.26-4.25a4.85 4.85 0 0 0-1.6-2.75 4.74 4.74 0 0 0-3.04-.92c-1.44 0-2.72.47-3.86 1.42a6.69 6.69 0 0 0-2.24 3.52c-.23.9-.34 2.58-.34 5.02v6.76h-2.37v-25.55zM549.58 173.6v18.44h-2.33v-3.17c-1 1.2-2.11 2.12-3.35 2.73a9.03 9.03 0 0 1-4.06.91 9 9 0 0 1-6.68-2.84 9.52 9.52 0 0 1-2.77-6.9c0-2.66.93-4.93 2.8-6.81a9.12 9.12 0 0 1 6.72-2.83 8.7 8.7 0 0 1 4.1.96 9.36 9.36 0 0 1 3.24 2.9v-3.39h2.33zm-9.48 1.82a7.18 7.18 0 0 0-6.32 3.7 7.49 7.49 0 0 0 .01 7.45 7.24 7.24 0 0 0 13.6-3.66c0-2.13-.7-3.91-2.1-5.34a6.98 6.98 0 0 0-5.19-2.15zM564.49 166.01c.54 0 1 .2 1.38.58.38.38.58.85.58 1.4 0 .52-.2.98-.58 1.36-.38.39-.84.58-1.38.58-.53 0-.99-.19-1.37-.58a1.88 1.88 0 0 1-.57-1.37c0-.54.19-1 .57-1.39.38-.38.84-.58 1.37-.58zm-1.18 7.6h2.37v18.43h-2.37V173.6zM578.46 173.6h2.42v2.7a8.57 8.57 0 0 1 2.29-2.38 4.5 4.5 0 0 1 2.5-.79c.66 0 1.36.21 2.1.63l-1.23 2a3.3 3.3 0 0 0-1.25-.33c-.8 0-1.56.33-2.3.98a6.18 6.18 0 0 0-1.67 3.02c-.3 1.05-.44 3.18-.44 6.37v6.24h-2.42V173.6zM626.15 175.62l-1.52 1.58c-1.27-1.23-2.51-1.85-3.72-1.85-.77 0-1.43.26-1.98.76-.55.51-.82 1.1-.82 1.78 0 .6.22 1.17.67 1.72.46.55 1.4 1.2 2.86 1.94 1.76.92 2.96 1.8 3.6 2.64.62.86.93 1.83.93 2.9a5.43 5.43 0 0 1-5.58 5.42 6.99 6.99 0 0 1-5.45-2.6l1.5-1.7c1.2 1.37 2.49 2.05 3.85 2.05.95 0 1.76-.3 2.42-.91a2.83 2.83 0 0 0 .34-3.97c-.44-.52-1.43-1.17-2.98-1.96-1.67-.86-2.8-1.7-3.4-2.54-.6-.84-.9-1.8-.9-2.87 0-1.4.48-2.56 1.44-3.49a4.99 4.99 0 0 1 3.62-1.38c1.7 0 3.4.82 5.12 2.48zM641.16 166.76h2.38v6.85h3.76v2.05h-3.76v16.38h-2.38v-16.38h-3.23v-2.05h3.23v-6.85zM657.62 173.6h2.5l6.34 14.2 6.15-14.2h2.52l-11 25.18h-2.5l3.55-8.14-7.56-17.03zM686.59 166.5h2.37v25.54h-2.37v-25.55zM703.45 166.01c.54 0 1 .2 1.39.58.38.38.57.85.57 1.4 0 .52-.2.98-.57 1.36-.39.39-.85.58-1.39.58-.52 0-.98-.19-1.36-.58a1.88 1.88 0 0 1-.58-1.37c0-.54.2-1 .58-1.39.38-.38.84-.58 1.36-.58zm-1.17 7.6h2.37v18.43h-2.37V173.6zM727.59 175.62l-1.53 1.58c-1.26-1.23-2.5-1.85-3.72-1.85-.77 0-1.43.26-1.98.76-.54.51-.82 1.1-.82 1.78 0 .6.23 1.17.68 1.72.45.55 1.4 1.2 2.85 1.94 1.77.92 2.97 1.8 3.6 2.64.62.86.93 1.83.93 2.9a5.43 5.43 0 0 1-5.58 5.42 6.99 6.99 0 0 1-5.45-2.6l1.5-1.7c1.2 1.37 2.5 2.05 3.85 2.05.95 0 1.76-.3 2.43-.91a2.83 2.83 0 0 0 .34-3.97c-.44-.52-1.44-1.17-2.99-1.96-1.66-.86-2.8-1.7-3.4-2.54-.6-.84-.9-1.8-.9-2.87 0-1.4.49-2.56 1.44-3.49a4.99 4.99 0 0 1 3.62-1.38c1.7 0 3.4.82 5.13 2.48zM742.6 166.76h2.37v6.85h3.76v2.05h-3.76v16.38h-2.37v-16.38h-3.24v-2.05h3.24v-6.85z"/></g></svg>